<svg width="560" height="420" viewBox="0 0 560 420" fill="none" xmlns="http://www.w3.org/2000/svg">
  <rect width="560" height="420" rx="32" fill="#F8F4EE"/>
  <rect x="74" y="88" width="412" height="216" rx="28" fill="#FFFFFF" stroke="#E7D8C7" stroke-width="3"/>
  <rect x="107" y="119" width="132" height="18" rx="9" fill="#EAF0F7"/>
  <rect x="107" y="156" width="196" height="16" rx="8" fill="#EEF3F8"/>
  <rect x="107" y="186" width="174" height="16" rx="8" fill="#EEF3F8"/>
  <rect x="107" y="216" width="144" height="16" rx="8" fill="#EEF3F8"/>
  <rect x="319" y="120" width="130" height="108" rx="20" fill="#13293D"/>
  <rect x="342" y="145" width="84" height="14" rx="7" fill="#314A61"/>
  <rect x="342" y="170" width="62" height="12" rx="6" fill="#4E6479"/>
  <rect x="342" y="196" width="74" height="28" rx="14" fill="#BF5B04"/>
  <rect x="143" y="303" width="274" height="54" rx="27" fill="#13293D"/>
  <rect x="171" y="319" width="104" height="12" rx="6" fill="#4E6479"/>
  <rect x="171" y="338" width="76" height="12" rx="6" fill="#4E6479"/>
  <circle cx="390" cy="330" r="24" fill="#176B47" fill-opacity="0.14"/>
  <path d="M379 330L387 338L401 322" stroke="#176B47" stroke-width="6" stroke-linecap="round" stroke-linejoin="round"/>
</svg>
