<svg width="720" height="520" viewBox="0 0 720 520" fill="none" xmlns="http://www.w3.org/2000/svg">
  <rect width="720" height="520" rx="36" fill="#FFF7EF"/>
  <circle cx="575" cy="122" r="82" fill="#FFE4C9"/>
  <circle cx="131" cy="390" r="92" fill="#E7F0FF"/>
  <rect x="110" y="88" width="354" height="256" rx="28" fill="#FFFFFF" stroke="#E8D7C5" stroke-width="3"/>
  <rect x="142" y="122" width="112" height="78" rx="18" fill="#13293D"/>
  <path d="M184 145C197.255 145 208 155.745 208 169C208 182.255 197.255 193 184 193C170.745 193 160 182.255 160 169C160 155.745 170.745 145 184 145Z" fill="#FFE4C9"/>
  <rect x="278" y="127" width="142" height="15" rx="7.5" fill="#E7EEF7"/>
  <rect x="278" y="156" width="120" height="15" rx="7.5" fill="#E7EEF7"/>
  <rect x="278" y="185" width="98" height="15" rx="7.5" fill="#E7EEF7"/>
  <rect x="142" y="230" width="278" height="14" rx="7" fill="#EEF3F8"/>
  <rect x="142" y="258" width="240" height="14" rx="7" fill="#EEF3F8"/>
  <rect x="142" y="286" width="198" height="14" rx="7" fill="#EEF3F8"/>
  <rect x="392" y="210" width="228" height="202" rx="28" fill="#13293D"/>
  <rect x="420" y="241" width="171" height="18" rx="9" fill="#314A61"/>
  <rect x="420" y="278" width="132" height="14" rx="7" fill="#4E6479"/>
  <rect x="420" y="311" width="100" height="14" rx="7" fill="#4E6479"/>
  <rect x="420" y="348" width="140" height="34" rx="17" fill="#BF5B04"/>
  <rect x="128" y="372" width="228" height="92" rx="26" fill="#FFFFFF" stroke="#E8D7C5" stroke-width="3"/>
  <rect x="156" y="397" width="72" height="14" rx="7" fill="#EEF3F8"/>
  <rect x="156" y="423" width="126" height="14" rx="7" fill="#EEF3F8"/>
  <rect x="280" y="395" width="48" height="48" rx="16" fill="#176B47" fill-opacity="0.14"/>
  <path d="M294 418L305 429L317 405" stroke="#176B47" stroke-width="7" stroke-linecap="round" stroke-linejoin="round"/>
</svg>
