<svg xmlns="http://www.w3.org/2000/svg" width="640" height="420" viewBox="0 0 640 420" fill="none">
  <rect width="640" height="420" rx="32" fill="#EAF7FF"/>
  <rect x="48" y="44" width="544" height="332" rx="28" fill="#FFFFFF" stroke="#CAE6F8"/>
  <rect x="92" y="88" width="456" height="48" rx="16" fill="#F1FAFF" stroke="#D4EBF9"/>
  <text x="110" y="118" fill="#16537F" font-family="Segoe UI, Arial, sans-serif" font-size="20" font-weight="700">Passport Seva Kendra Appointment Counter</text>
  <rect x="118" y="244" width="404" height="40" rx="16" fill="#1B5E94"/>
  <rect x="132" y="284" width="18" height="58" rx="9" fill="#2A78B4"/>
  <rect x="490" y="284" width="18" height="58" rx="9" fill="#2A78B4"/>
  <circle cx="186" cy="214" r="26" fill="#DCA06F"/>
  <path d="M154 274C163 240 174 228 186 228C198 228 209 240 218 274" fill="#7EB8E2"/>
  <circle cx="454" cy="198" r="24" fill="#E1A676"/>
  <path d="M426 252C434 224 444 214 454 214C464 214 474 224 482 252" fill="#1F5F95"/>
  <rect x="284" y="184" width="88" height="58" rx="12" fill="#FDF1DD" stroke="#EBCB99"/>
  <rect x="300" y="198" width="56" height="12" rx="6" fill="#D99635"/>
  <rect x="300" y="218" width="44" height="10" rx="5" fill="#F0D7B2"/>
  <rect x="392" y="146" width="122" height="28" rx="10" fill="#0D4372"/>
  <text x="428" y="165" fill="#F2FAFF" font-family="Segoe UI, Arial, sans-serif" font-size="15" font-weight="700">Token A12</text>
</svg>
