<svg xmlns="http://www.w3.org/2000/svg" width="640" height="420" viewBox="0 0 640 420" fill="none">
  <rect width="640" height="420" rx="32" fill="#EAF7FF"/>
  <rect x="56" y="52" width="528" height="316" rx="28" fill="#FFFFFF" stroke="#CBE6F7"/>
  <rect x="98" y="88" width="176" height="232" rx="22" fill="#F7FBFE" stroke="#D5EBF9"/>
  <text x="124" y="120" fill="#18527F" font-family="Segoe UI, Arial, sans-serif" font-size="18" font-weight="700">Document Set</text>
  <rect x="126" y="142" width="120" height="84" rx="14" fill="#DDEFFA"/>
  <circle cx="186" cy="171" r="22" fill="#DFA06D"/>
  <path d="M154 224C163 205 176 196 186 196C196 196 209 205 218 224" fill="#7FB7E0"/>
  <rect x="126" y="248" width="104" height="10" rx="5" fill="#AFD7F2"/>
  <rect x="126" y="268" width="88" height="10" rx="5" fill="#D6ECFA"/>
  <rect x="310" y="94" width="232" height="56" rx="18" fill="#F2FAFF" stroke="#D5EBF9"/>
  <text x="334" y="127" fill="#165380" font-family="Segoe UI, Arial, sans-serif" font-size="19" font-weight="700">Passport Application Checklist</text>
  <rect x="310" y="170" width="232" height="44" rx="16" fill="#F9FCFE" stroke="#D7ECFA"/>
  <rect x="330" y="184" width="22" height="22" rx="7" fill="#2C7BB8"/>
  <path d="M336 195L342 201L348 190" stroke="#F8FDFF" stroke-width="4" stroke-linecap="round" stroke-linejoin="round"/>
  <rect x="364" y="188" width="132" height="10" rx="5" fill="#83BDE9"/>
  <rect x="310" y="226" width="232" height="44" rx="16" fill="#F9FCFE" stroke="#D7ECFA"/>
  <rect x="330" y="240" width="22" height="22" rx="7" fill="#2C7BB8"/>
  <path d="M336 251L342 257L348 246" stroke="#F8FDFF" stroke-width="4" stroke-linecap="round" stroke-linejoin="round"/>
  <rect x="364" y="244" width="152" height="10" rx="5" fill="#83BDE9"/>
  <rect x="310" y="282" width="232" height="44" rx="16" fill="#FFF9F1" stroke="#EED9BA"/>
  <rect x="330" y="296" width="22" height="22" rx="7" fill="#F1A43F"/>
  <path d="M336 307L342 313L348 302" stroke="#FFF8EB" stroke-width="4" stroke-linecap="round" stroke-linejoin="round"/>
  <rect x="364" y="300" width="138" height="10" rx="5" fill="#E7CFA8"/>
</svg>
